<?xml version="1.0" encoding="UTF-8"?>
<svg xmlns="http://www.w3.org/2000/svg" version="1.1" width="150" height="150" viewBox="0 0 150 150"><rect x="0" y="0" width="150" height="150" fill="#ffffff"/><g transform="scale(7.143)"><g transform="translate(0,0)"><path fill-rule="evenodd" d="M9 0L9 1L8 1L8 3L9 3L9 4L8 4L8 8L6 8L6 9L4 9L4 8L3 8L3 9L2 9L2 8L0 8L0 10L1 10L1 11L0 11L0 12L2 12L2 11L3 11L3 12L4 12L4 13L5 13L5 12L4 12L4 11L3 11L3 10L5 10L5 11L7 11L7 12L6 12L6 13L8 13L8 15L10 15L10 16L11 16L11 17L10 17L10 18L9 18L9 17L8 17L8 18L9 18L9 19L8 19L8 21L9 21L9 20L10 20L10 18L11 18L11 19L12 19L12 21L20 21L20 20L17 20L17 19L18 19L18 18L20 18L20 19L21 19L21 17L19 17L19 16L18 16L18 18L15 18L15 17L16 17L16 15L17 15L17 14L18 14L18 13L19 13L19 15L20 15L20 16L21 16L21 15L20 15L20 13L21 13L21 10L20 10L20 8L18 8L18 9L17 9L17 8L14 8L14 9L13 9L13 8L12 8L12 7L13 7L13 6L12 6L12 5L13 5L13 4L12 4L12 5L11 5L11 6L10 6L10 7L9 7L9 4L10 4L10 0ZM12 0L12 1L11 1L11 3L13 3L13 2L12 2L12 1L13 1L13 0ZM11 6L11 7L12 7L12 6ZM8 8L8 10L7 10L7 9L6 9L6 10L7 10L7 11L9 11L9 12L8 12L8 13L9 13L9 14L11 14L11 15L12 15L12 16L13 16L13 17L12 17L12 18L14 18L14 17L15 17L15 15L16 15L16 14L17 14L17 13L18 13L18 12L19 12L19 11L20 11L20 10L19 10L19 11L18 11L18 12L17 12L17 10L16 10L16 9L14 9L14 11L15 11L15 12L13 12L13 11L12 11L12 12L11 12L11 10L13 10L13 9L11 9L11 10L10 10L10 11L9 11L9 8ZM9 12L9 13L10 13L10 12ZM12 12L12 15L14 15L14 14L16 14L16 12L15 12L15 13L13 13L13 12ZM13 19L13 20L16 20L16 19ZM0 0L0 7L7 7L7 0ZM1 1L1 6L6 6L6 1ZM2 2L2 5L5 5L5 2ZM14 0L14 7L21 7L21 0ZM15 1L15 6L20 6L20 1ZM16 2L16 5L19 5L19 2ZM0 14L0 21L7 21L7 14ZM1 15L1 20L6 20L6 15ZM2 16L2 19L5 19L5 16Z" fill="#000000"/></g></g></svg>
